<svg width="623" height="664" viewBox="0 0 623 664" fill="none" xmlns="http://www.w3.org/2000/svg">
<rect width="623" height="623" fill="white"/>
<rect x="39" y="42" width="545" height="540" rx="6" fill="#121212"/>
<path d="M119.963 440V221.818H206.043C222.591 221.818 236.689 224.979 248.337 231.3C259.984 237.55 268.862 246.25 274.97 257.401C281.149 268.48 284.239 281.264 284.239 295.753C284.239 310.241 281.114 323.026 274.864 334.105C268.614 345.185 259.558 353.814 247.697 359.993C235.908 366.172 221.632 369.261 204.871 369.261H150.006V332.294H197.413C206.291 332.294 213.607 330.767 219.359 327.713C225.183 324.588 229.516 320.291 232.357 314.822C235.268 309.283 236.724 302.926 236.724 295.753C236.724 288.509 235.268 282.187 232.357 276.79C229.516 271.321 225.183 267.095 219.359 264.112C213.536 261.058 206.149 259.531 197.2 259.531H166.092V440H119.963ZM314.201 440V221.818H360.331V311.839H453.974V221.818H499.997V440H453.974V349.872H360.331V440H314.201Z" fill="white"/>
</svg>
